<?xml version="1.0" standalone="no"?>
<!DOCTYPE svg PUBLIC "-//W3C//DTD SVG 20010904//EN"
 "http://www.w3.org/TR/2001/REC-SVG-20010904/DTD/svg10.dtd">
<svg version="1.0" xmlns="http://www.w3.org/2000/svg"
 width="231.000000pt" height="231.000000pt" viewBox="0 0 231.000000 231.000000"
 preserveAspectRatio="xMidYMid meet">
<metadata>
Created by potrace 1.14, written by Peter Selinger 2001-2017
</metadata>
<g transform="translate(0.000000,231.000000) scale(0.100000,-0.100000)"
fill="#000000" stroke="none">
<path d="M1455 2080 c-3 -6 6 -15 21 -20 l28 -11 -25 -13 c-28 -15 -194 -111
-291 -168 l-68 -40 -177 103 c-98 56 -190 109 -205 118 -18 11 -30 13 -37 6
-7 -7 5 -19 37 -37 52 -28 324 -186 360 -209 20 -12 26 -12 55 5 17 10 50 29
72 41 22 13 96 55 163 94 68 39 128 71 132 71 4 0 6 -9 3 -20 -3 -11 -1 -20 5
-20 15 0 19 9 27 52 8 40 13 36 -69 53 -14 3 -28 1 -31 -5z"/>
<path d="M840 1215 l0 -465 99 0 99 0 0 143 c0 78 1 152 1 165 1 21 5 22 74
22 71 -1 72 -1 87 -33 9 -18 47 -92 85 -164 l70 -133 109 0 c82 0 107 3 103
13 -2 6 -46 86 -96 177 -90 164 -90 165 -69 180 94 65 138 147 138 256 0 137
-70 242 -188 282 -55 18 -87 21 -287 22 l-225 1 0 -466z m425 285 c52 -25 70
-58 70 -126 0 -100 -49 -132 -202 -133 -82 -1 -93 1 -94 17 -1 18 -1 215 0
245 1 27 169 25 226 -3z"/>
</g>
</svg>
